<svg width="119" height="90" viewBox="0 0 119 90" fill="none" xmlns="http://www.w3.org/2000/svg">
<path d="M71.3486 80.2218C71.5962 80.0807 71.8957 79.996 72.1712 79.9275C82.469 77.3228 90.3272 68.0209 92.9985 57.6464C95.6698 47.2719 93.6932 36.0951 89.3169 26.3255C85.0485 16.7897 78.6238 8.41916 71.8717 0.476027C71.696 0.270393 71.8717 -0.0400748 72.1392 0.00427769C76.0164 0.677629 79.5062 2.91138 82.497 5.52012C91.6928 13.5439 97.0274 25.0594 102.286 36.1072C102.434 36.4177 102.685 36.6798 103.009 36.7886C103.859 37.083 104.374 36.2201 104.646 35.4903C106.706 29.9543 106.902 23.7288 105.189 18.0719C105.081 17.713 104.985 17.2655 105.345 17.0477C105.644 16.8663 106.039 16.9913 106.235 17.2856C109.154 21.7047 111.051 26.9101 111.095 32.2244C111.202 45.2962 100.493 56.5134 100.342 69.5853C100.338 70.0369 100.357 70.5368 100.976 70.7465C101.344 70.8715 101.751 70.803 102.082 70.6014C102.606 70.2828 103.125 69.9522 103.636 69.6095C103.995 69.3716 104.35 69.1256 104.706 68.8756C105.061 68.6257 105.409 68.3716 105.756 68.1136C106.103 67.8555 106.447 67.5894 106.786 67.3233C107.126 67.0572 107.461 66.783 107.792 66.5048C108.124 66.2266 108.451 65.9443 108.779 65.6581C109.106 65.3718 109.426 65.0815 109.741 64.7871C110.056 64.4928 110.372 64.1944 110.679 63.888C110.987 63.5816 111.294 63.2751 111.594 62.9647C111.893 62.6542 112.193 62.3357 112.484 62.0171C112.776 61.6986 113.063 61.372 113.347 61.0454C113.63 60.7188 113.91 60.3882 114.185 60.0495C114.461 59.7108 114.732 59.3761 114.996 59.0334C115.263 58.6907 115.523 58.3439 115.778 57.9972C116.034 57.6504 116.285 57.2956 116.533 56.9368C116.657 56.7593 116.781 56.5779 116.9 56.4005C117.02 56.2231 117.124 56.0376 117.252 55.8723C117.427 55.6465 117.771 55.7473 117.927 55.9449C118.026 56.0739 118.022 56.207 117.982 56.3561C117.915 56.6021 117.847 56.848 117.775 57.094C117.631 57.5859 117.483 58.0738 117.324 58.5576L117.316 58.5778C117.188 58.9729 117.052 59.364 116.912 59.7511C116.773 60.1382 116.629 60.5293 116.477 60.9124C116.325 61.2954 116.17 61.6825 116.01 62.0615C115.85 62.4405 115.682 62.8235 115.511 63.1985C115.339 63.5735 115.163 63.9485 114.98 64.3194C114.796 64.6904 114.612 65.0613 114.421 65.4282C114.229 65.7952 114.033 66.158 113.83 66.5209C113.626 66.8838 113.422 67.2386 113.211 67.5975C112.999 67.9563 112.784 68.3071 112.564 68.6539C112.344 69.0006 112.117 69.3514 111.889 69.6941C111.662 70.0369 111.426 70.3796 111.186 70.7143C110.947 71.0529 110.703 71.3836 110.456 71.7142C110.208 72.0448 109.957 72.3714 109.697 72.694C109.441 73.0166 109.178 73.3351 108.914 73.6536C108.651 73.9721 108.379 74.2826 108.104 74.589C107.828 74.8955 107.553 75.2019 107.269 75.5043C106.986 75.8067 106.698 76.1011 106.411 76.3954C106.123 76.6897 105.824 76.976 105.528 77.2623C105.233 77.5486 104.925 77.8268 104.622 78.101C104.319 78.3751 104.007 78.6493 103.692 78.9154C103.376 79.1816 103.061 79.4436 102.737 79.7017C102.705 79.7259 102.677 79.7501 102.645 79.7743C94.8831 85.9594 85.0285 89.4109 75.1379 89.4109C74.7227 89.4109 74.2795 89.3947 73.944 89.1528C73.6126 88.9149 73.4529 88.5036 73.3092 88.1166L71.0092 81.8467C70.8775 81.4879 70.7457 81.0927 70.8775 80.7339C70.9653 80.496 71.141 80.3307 71.3606 80.2097L71.3486 80.2218Z" fill="#023047"/>
<path d="M46.6641 80.2218C46.4166 80.0807 46.1171 79.996 45.8416 79.9275C35.5437 77.3228 27.6856 68.0208 25.0143 57.6464C22.343 47.2719 24.3195 36.0951 28.6958 26.3255C32.9603 16.7937 39.3849 8.42318 46.137 0.480055C46.3127 0.274421 46.137 -0.0360465 45.8695 0.00830601C41.9924 0.681658 38.5025 2.91541 35.5118 5.52414C26.316 13.5479 20.9814 25.0634 15.7227 36.1112C15.5749 36.4217 15.3234 36.6838 14.9999 36.7927C14.1494 37.087 13.6343 36.2241 13.3628 35.4943C11.3024 29.9583 11.1068 23.7329 12.8198 18.0759C12.9276 17.717 13.0234 17.2695 12.664 17.0518C12.3646 16.8703 11.9693 16.9953 11.7736 17.2897C8.85476 21.7088 6.9581 26.9141 6.91418 32.2284C6.80637 45.3003 17.5155 56.5174 17.6672 69.5893C17.6712 70.0409 17.6513 70.5409 17.0323 70.7505C16.665 70.8755 16.2577 70.807 15.9263 70.6054C15.4032 70.2869 14.8841 69.9562 14.373 69.6135C14.0137 69.3756 13.6583 69.1297 13.3029 68.8797C12.9475 68.6297 12.6002 68.3757 12.2528 68.1176C11.9054 67.8596 11.562 67.5935 11.2226 67.3273C10.8832 67.0612 10.5478 66.787 10.2164 66.5088C9.88495 66.2306 9.55752 65.9484 9.2301 65.6621C8.90268 65.3758 8.58324 65.0855 8.2678 64.7912C7.95235 64.4968 7.63691 64.1985 7.32945 63.892C7.02199 63.5856 6.71453 63.2792 6.41506 62.9687C6.11559 62.6582 5.81612 62.3397 5.52463 62.0212C5.23315 61.7026 4.94565 61.376 4.66215 61.0494C4.37865 60.7228 4.09914 60.3922 3.82363 60.0535C3.54812 59.7148 3.27659 59.3802 3.01306 59.0375C2.74952 58.6947 2.48599 58.348 2.23044 58.0012C1.97489 57.6504 1.72333 57.2996 1.47577 56.9408C1.35199 56.7634 1.2282 56.5819 1.10842 56.4045C0.988627 56.2271 0.88481 56.0416 0.757035 55.8763C0.581345 55.6505 0.23795 55.7513 0.0822243 55.9489C-0.0175998 56.0779 -0.0136068 56.211 0.0263228 56.3602C0.0942032 56.6061 0.162084 56.8521 0.233957 57.098C0.377703 57.5899 0.525443 58.0778 0.685162 58.5617L0.693147 58.5818C0.820922 58.977 0.956683 59.3681 1.09644 59.7552C1.23619 60.1422 1.37994 60.5333 1.53167 60.9164C1.6834 61.2994 1.83913 61.6865 1.99885 62.0655C2.15856 62.4445 2.32627 62.8276 2.49797 63.2026C2.66966 63.5775 2.84535 63.9525 3.02903 64.3235C3.20871 64.6944 3.39638 65.0654 3.58805 65.4323C3.77971 65.7992 3.97536 66.1621 4.179 66.525C4.38264 66.8878 4.58629 67.2427 4.79791 67.6015C5.00954 67.9604 5.22516 68.3112 5.44477 68.6579C5.66439 69.0047 5.89198 69.3555 6.11958 69.6982C6.34718 70.0409 6.58277 70.3836 6.82234 70.7183C7.06192 71.0529 7.30549 71.3876 7.55306 71.7182C7.80062 72.0489 8.05218 72.3755 8.31172 72.698C8.57126 73.0206 8.8308 73.3391 9.09434 73.6576C9.35787 73.9762 9.6294 74.2866 9.90491 74.5931C10.1804 74.8995 10.4559 75.2059 10.7394 75.5084C11.0229 75.8108 11.3104 76.1051 11.5979 76.3994C11.8854 76.6938 12.1849 76.98 12.4804 77.2663C12.7759 77.5526 13.0833 77.8308 13.3868 78.105C13.6902 78.3792 14.0017 78.6534 14.3171 78.9195C14.6326 79.1856 14.948 79.4477 15.2715 79.7057C15.3034 79.7299 15.3313 79.7541 15.3633 79.7783C23.1256 85.9635 32.9802 89.4149 42.8708 89.4149C43.2861 89.4149 43.7293 89.3988 44.0647 89.1568C44.3961 88.9189 44.5558 88.5077 44.6996 88.1206L46.9995 81.8508C47.1313 81.4919 47.2631 81.0968 47.1313 80.7379C47.0434 80.5 46.8678 80.3347 46.6481 80.2137L46.6641 80.2218Z" fill="#023047"/>
<path d="M31.6426 44.7156C52.5457 41.1109 55.4366 38.1917 59.0063 17.084C62.576 38.1917 65.467 41.1109 86.3701 44.7156C65.467 48.3202 62.576 51.2394 59.0063 72.3472C55.4366 51.2394 52.5457 48.3202 31.6426 44.7156Z" fill="#18CCAC"/>
</svg>
